<svg xmlns="http://www.w3.org/2000/svg" id="svg2" width="313" height="490">
  <g id="foreground" fill="none" stroke="#c7c7cd" stroke-width="6.4">
    <g id="reactor-pressure" fill="#444" stroke="#000" transform="translate(-122.484 -385.067) scale(.8935)">
      <ellipse id="pressure-circle" cx="317.6" cy="750" fill="#fff" stroke-width="2.8" ry="44.6" rx="49" stroke-dasharray="5.61 2.8"/>
      <text id="pressure-units" x="331.5" y="777.4" stroke-width=".9" letter-spacing="0" class="units" style="line-height:125%" font-size="15.1" word-spacing="0" font-family="Sans">
        psig
      </text>
      <text id="pressure-text" x="318" y="761.2" style="line-height:1.25;text-align:center" font-size="37.3" letter-spacing="0" word-spacing="0" font-family="sans-serif" text-anchor="middle">
        0
      </text>
    </g>
    <g id="reactor-temperature" fill="#444" stroke="#000" transform="translate(-122.82 -476.396) scale(.8935)">
      <ellipse id="temperature-circle" cx="317.6" cy="750" fill="#fff" stroke-width="2.8" ry="44.6" rx="49" stroke-dasharray="5.61 2.8"/>
      <text id="temperature-units" x="331.5" y="777.4" stroke-width=".9" letter-spacing="0" class="units" style="line-height:125%" font-size="15.1" word-spacing="0" font-family="Sans">
        °C
      </text>
      <text id="temperature-text" x="318" y="761.2" style="line-height:1.25;text-align:center" font-size="37.3" letter-spacing="0" word-spacing="0" font-family="sans-serif" text-anchor="middle">
        0
      </text>
    </g>
    <g id="g4608" stroke-width="5.39">
      <path id="path4596" d="M275.83 112.32c0 16.24-51.52 29.46-115.07 29.46-63.64 0-115.23-13.22-115.23-29.46"/>
      <path id="path4598" d="M45.53 112.32c0-8.67 14.8-16.5 38.3-21.9"/>
      <path id="path4600" d="M238.12 90.6c23.23 5.3 37.8 13.13 37.8 21.72"/>
      <path id="path4602" d="M275.83 312.48c0 16.25-51.52 29.38-115.07 29.38-63.64 0-115.23-13.13-115.23-29.46"/>
      <path id="path4604" d="M45.53 112.32v200.16"/>
      <path id="path4606" d="M275.83 112.32v200.16"/>
    </g>
    <g id="reactor-internal-vessel">
      <path id="path4610" stroke-width="5.39" d="M237.95 107.94c0 10.94-34.6 19.7-77.27 19.7-42.68 0-77.28-8.84-77.28-19.7"/>
      <path id="path4612" d="M930.9 676c0 12-38.5 21.8-86 21.8s-86-9.8-86-21.9" transform="matrix(.899 0 0 .7765 -598.823 -463.517)"/>
      <path id="path4614" d="M759.6 677c0-20.5 38.2-37.2 85.3-37.2 47.1 0 85.3 16.7 85.3 37.2" transform="matrix(.899 0 0 .7765 -598.823 -463.517)"/>
      <path id="path4616" stroke-width="5.39" d="M83.4 61.3v46.64"/>
      <path id="path4618" stroke-width="5.39" d="M237.95 61.3v46.64"/>
    </g>
    <g id="g4629" stroke-width="4">
      <path id="path4621" fill="#fff" stroke-width="3.5" d="M901.6 950.4h-5.2l9 11.6H928l-9-11.6h-2.2" transform="matrix(1.3398 0 .1792 1.3398 -1107.317 -801.475)"/>
      <path id="path4623" stroke-width="3.5" d="M888.2 847l16.3 110" transform="matrix(1.3398 0 .1792 1.3398 -1107.317 -801.475)"/>
      <path id="path4625" stroke-width="3.5" d="M902.6 842.8l17 114.2" transform="matrix(1.3398 0 .1792 1.3398 -1107.317 -801.475)"/>
      <path id="path4627" fill="#fff" stroke-width="2.5" d="M918 954c1.6.6 2.6 1.4 2.6 2.2 0 1.7-4 3-8.7 3-4.7 0-8.6-1.3-8.6-3 0-.8.9-1.5 2.3-2" transform="matrix(1.3398 0 .1792 1.3398 -1107.317 -801.475)"/>
    </g>
    <g id="g4635" stroke-width="2.5">
      <path id="path4631" fill="#fff" d="M803.7 935.1h5l-8.3 9.1h-16.9l8.4-9" transform="matrix(-1.3398 0 .1954 1.3398 1118.657 -822.013)"/>
      <path id="path4633" stroke-width="3.37" d="M223.64 430.83h2.94"/>
    </g>
    <g id="g4643" stroke-width="2.5">
      <path id="path4637" stroke-width="3" d="M794.2 865l-3.4 74.5" transform="matrix(-1.3398 0 .1954 1.3398 1118.657 -822.013)"/>
      <path id="path4639" stroke-width="3" d="M805 865l-3.5 75" transform="matrix(-1.3398 0 .1954 1.3398 1118.657 -822.013)"/>
      <path id="path4641" fill="#fff" d="M800.4 938.1c1.1.3 1.8.8 1.8 1.3 0 1-2.7 1.8-6 1.8s-6-.8-6-1.8c0-.5.6-1 1.7-1.3" transform="matrix(-1.3398 0 .1954 1.3398 1118.657 -822.013)"/>
    </g>
    <g id="g4649" stroke-width="3">
      <path id="path4645" d="M931 944.2l-31.3-21.5" transform="matrix(1.3398 0 -.5408 1.3398 -470.795 -793.225)"/>
      <path id="path4647" d="M932.6 939l-23.5-16.3" transform="matrix(1.3398 0 -.5408 1.3398 -470.795 -793.225)"/>
    </g>
    <path id="path4651" stroke-width="3.37" d="M92.58 434.36l129.46.17"/>
    <path id="path4653" stroke-width="3.37" d="M87.02 439.75l140.07.25"/>
    <g id="g4663" stroke-width="4">
      <path id="path4655" fill="#fff" stroke-width="3.5" d="M901.6 950.4h-5.2l9 11.6H928l-9-11.6h-2.2" transform="matrix(-1.3398 0 -.1792 1.3398 1421.767 -801.475)"/>
      <path id="path4657" stroke-width="3.5" d="M888 845.8L904.4 957" transform="matrix(-1.3398 0 -.1792 1.3398 1421.767 -801.475)"/>
      <path id="path4659" stroke-width="3.5" d="M902.5 842.4L919.6 957" transform="matrix(-1.3398 0 -.1792 1.3398 1421.767 -801.475)"/>
      <path id="path4661" fill="#fff" stroke-width="2.5" d="M920.6 956.2c0 1.7-4 3-8.7 3-4.7 0-8.6-1.3-8.6-3" transform="matrix(-1.3398 0 -.1792 1.3398 1421.767 -801.475)"/>
    </g>
    <g id="g4669" stroke-width="2.5">
      <path id="path4665" fill="#fff" d="M803.7 935.1h5l-8.3 9.1h-16.9l8.4-9" transform="matrix(1.3398 0 -.1954 1.3398 -804.123 -822.013)"/>
      <path id="path4667" stroke-width="3.37" d="M90.9 430.83h-3.03"/>
    </g>
    <g id="g4677" stroke-width="2.5">
      <path id="path4671" stroke-width="3" d="M794.1 865.7l-3.3 73.4" transform="matrix(1.3398 0 -.1954 1.3398 -804.123 -822.013)"/>
      <path id="path4673" stroke-width="3" d="M805 864.5l-3.4 76.3" transform="matrix(1.3398 0 -.1954 1.3398 -804.123 -822.013)"/>
      <path id="path4675" fill="#fff" d="M800.3 938.3c1.2.3 2 .8 2 1.3 0 1-2.8 1.8-6 1.8-3.4 0-6-.8-6-1.8 0-.5.7-1 2-1.3" transform="matrix(1.3398 0 -.1954 1.3398 -804.123 -822.013)"/>
    </g>
    <g id="g4683" stroke-width="3">
      <path id="path4679" d="M931 944.2l-31.3-21.5" transform="matrix(-1.3398 0 .5408 1.3398 785.33 -793.225)"/>
      <path id="path4681" d="M932.6 939l-23.5-16.3" transform="matrix(-1.3398 0 .5408 1.3398 785.33 -793.225)"/>
    </g>
    <path id="path4685" stroke-width="4.71" d="M47.72 475.95h219.94"/>
    <path id="path4687" stroke-width="4.71" d="M38.8 484.1h237.03"/>
  </g>
</svg>